<?xml version="1.0" encoding="UTF-8" standalone="no"?><!-- Generator: Gravit.io --><svg xmlns="http://www.w3.org/2000/svg" xmlns:xlink="http://www.w3.org/1999/xlink" style="isolation:isolate" viewBox="0 0 327 76" width="327pt" height="76pt"><defs><clipPath id="_clipPath_igewCL4ixxrhc2L5RNn8Snl2lfk8WtyS"><rect width="327" height="76"/></clipPath></defs><g clip-path="url(#_clipPath_igewCL4ixxrhc2L5RNn8Snl2lfk8WtyS)"><rect width="327" height="76" style="fill:rgb(96,96,96)" fill-opacity="0"/><path d=" M 90.626 53.102 L 90.626 53.102 Q 87.665 53.102 86.013 51.408 L 86.013 51.408 L 86.013 51.408 Q 84.362 49.713 84.362 46.581 L 84.362 46.581 L 84.362 20.538 L 91.14 19.808 L 91.14 46.324 L 91.14 46.324 Q 91.14 47.739 92.299 47.739 L 92.299 47.739 L 92.299 47.739 Q 92.9 47.739 93.414 47.525 L 93.414 47.525 L 94.744 52.33 L 94.744 52.33 Q 92.9 53.102 90.626 53.102 L 90.626 53.102 Z  M 96.093 29.591 L 102.872 29.591 L 102.872 52.373 L 96.093 52.373 L 96.093 29.591 Z  M 99.439 17.577 L 99.439 17.577 Q 101.199 17.577 102.336 18.671 L 102.336 18.671 L 102.336 18.671 Q 103.473 19.765 103.473 21.439 L 103.473 21.439 L 103.473 21.439 Q 103.473 23.112 102.336 24.206 L 102.336 24.206 L 102.336 24.206 Q 101.199 25.3 99.439 25.3 L 99.439 25.3 L 99.439 25.3 Q 97.68 25.3 96.565 24.206 L 96.565 24.206 L 96.565 24.206 Q 95.449 23.112 95.449 21.439 L 95.449 21.439 L 95.449 21.439 Q 95.449 19.765 96.565 18.671 L 96.565 18.671 L 96.565 18.671 Q 97.68 17.577 99.439 17.577 L 99.439 17.577 Z  M 120.31 28.861 L 120.31 28.861 Q 123.27 28.861 124.943 30.663 L 124.943 30.663 L 124.943 30.663 Q 126.617 32.465 126.617 35.726 L 126.617 35.726 L 126.617 52.373 L 119.838 52.373 L 119.838 36.884 L 119.838 36.884 Q 119.838 35.168 119.301 34.503 L 119.301 34.503 L 119.301 34.503 Q 118.765 33.838 117.692 33.838 L 117.692 33.838 L 117.692 33.838 Q 115.633 33.838 113.745 36.799 L 113.745 36.799 L 113.745 52.373 L 106.966 52.373 L 106.966 29.591 L 112.887 29.591 L 113.359 32.294 L 113.359 32.294 Q 114.818 30.577 116.513 29.719 L 116.513 29.719 L 116.513 29.719 Q 118.207 28.861 120.31 28.861 L 120.31 28.861 Z  M 149.718 29.591 L 149.718 52.373 L 143.84 52.373 L 143.539 49.498 L 143.539 49.498 Q 141.051 53.102 136.632 53.102 L 136.632 53.102 L 136.632 53.102 Q 133.5 53.102 131.891 51.215 L 131.891 51.215 L 131.891 51.215 Q 130.282 49.327 130.282 45.937 L 130.282 45.937 L 130.282 29.591 L 137.061 29.591 L 137.061 45.079 L 137.061 45.079 Q 137.061 46.753 137.597 47.418 L 137.597 47.418 L 137.597 47.418 Q 138.133 48.083 139.249 48.083 L 139.249 48.083 L 139.249 48.083 Q 141.394 48.083 142.939 45.423 L 142.939 45.423 L 142.939 29.591 L 149.718 29.591 Z  M 172.433 29.591 L 166.212 40.188 L 173.548 52.373 L 165.868 52.373 L 161.921 43.835 L 158.06 52.373 L 150.68 52.373 L 158.017 40.403 L 151.409 29.591 L 159.004 29.591 L 162.179 36.884 L 165.225 29.591 L 172.433 29.591 Z  M 187.425 28.861 L 187.425 28.861 Q 191.715 28.861 193.818 32.036 L 193.818 32.036 L 193.818 32.036 Q 195.92 35.211 195.92 40.918 L 195.92 40.918 L 195.92 40.918 Q 195.92 44.436 194.826 47.203 L 194.826 47.203 L 194.826 47.203 Q 193.732 49.97 191.672 51.536 L 191.672 51.536 L 191.672 51.536 Q 189.613 53.102 186.867 53.102 L 186.867 53.102 L 186.867 53.102 Q 183.435 53.102 181.332 50.743 L 181.332 50.743 L 181.332 61.169 L 174.553 61.898 L 174.553 29.591 L 180.517 29.591 L 180.86 32.122 L 180.86 32.122 Q 182.191 30.449 183.907 29.655 L 183.907 29.655 L 183.907 29.655 Q 185.623 28.861 187.425 28.861 L 187.425 28.861 Z  M 184.808 48.126 L 184.808 48.126 Q 188.884 48.126 188.884 41.003 L 188.884 41.003 L 188.884 41.003 Q 188.884 36.97 187.983 35.404 L 187.983 35.404 L 187.983 35.404 Q 187.082 33.838 185.28 33.838 L 185.28 33.838 L 185.28 33.838 Q 184.121 33.838 183.113 34.525 L 183.113 34.525 L 183.113 34.525 Q 182.105 35.211 181.332 36.498 L 181.332 36.498 L 181.332 46.109 L 181.332 46.109 Q 182.705 48.126 184.808 48.126 L 184.808 48.126 Z  M 218.807 40.531 L 218.807 40.531 Q 218.807 41.947 218.678 42.977 L 218.678 42.977 L 204.562 42.977 L 204.562 42.977 Q 204.906 45.852 206.193 47.01 L 206.193 47.01 L 206.193 47.01 Q 207.48 48.168 209.754 48.168 L 209.754 48.168 L 209.754 48.168 Q 211.127 48.168 212.414 47.675 L 212.414 47.675 L 212.414 47.675 Q 213.701 47.182 215.203 46.152 L 215.203 46.152 L 217.992 49.928 L 217.992 49.928 Q 214.001 53.102 209.11 53.102 L 209.11 53.102 L 209.11 53.102 Q 203.576 53.102 200.615 49.842 L 200.615 49.842 L 200.615 49.842 Q 197.655 46.581 197.655 41.089 L 197.655 41.089 L 197.655 41.089 Q 197.655 37.614 198.899 34.846 L 198.899 34.846 L 198.899 34.846 Q 200.143 32.079 202.546 30.47 L 202.546 30.47 L 202.546 30.47 Q 204.948 28.861 208.295 28.861 L 208.295 28.861 L 208.295 28.861 Q 213.229 28.861 216.018 31.95 L 216.018 31.95 L 216.018 31.95 Q 218.807 35.04 218.807 40.531 L 218.807 40.531 Z  M 212.156 38.901 L 212.156 38.601 L 212.156 38.601 Q 212.071 33.366 208.467 33.366 L 208.467 33.366 L 208.467 33.366 Q 206.708 33.366 205.742 34.653 L 205.742 34.653 L 205.742 34.653 Q 204.777 35.941 204.562 38.901 L 204.562 38.901 L 212.156 38.901 Z  M 231.267 28.861 L 231.267 28.861 Q 236.502 28.861 239.462 32.058 L 239.462 32.058 L 239.462 32.058 Q 242.423 35.254 242.423 41.003 L 242.423 41.003 L 242.423 41.003 Q 242.423 44.65 241.071 47.375 L 241.071 47.375 L 241.071 47.375 Q 239.72 50.099 237.21 51.601 L 237.21 51.601 L 237.21 51.601 Q 234.7 53.102 231.267 53.102 L 231.267 53.102 L 231.267 53.102 Q 226.076 53.102 223.094 49.906 L 223.094 49.906 L 223.094 49.906 Q 220.112 46.71 220.112 40.96 L 220.112 40.96 L 220.112 40.96 Q 220.112 37.314 221.464 34.589 L 221.464 34.589 L 221.464 34.589 Q 222.815 31.865 225.325 30.363 L 225.325 30.363 L 225.325 30.363 Q 227.835 28.861 231.267 28.861 L 231.267 28.861 Z  M 231.267 33.838 L 231.267 33.838 Q 229.208 33.838 228.178 35.576 L 228.178 35.576 L 228.178 35.576 Q 227.149 37.314 227.149 40.96 L 227.149 40.96 L 227.149 40.96 Q 227.149 44.693 228.157 46.409 L 228.157 46.409 L 228.157 46.409 Q 229.165 48.126 231.267 48.126 L 231.267 48.126 L 231.267 48.126 Q 233.327 48.126 234.357 46.388 L 234.357 46.388 L 234.357 46.388 Q 235.386 44.65 235.386 41.003 L 235.386 41.003 L 235.386 41.003 Q 235.386 37.271 234.378 35.554 L 234.378 35.554 L 234.378 35.554 Q 233.37 33.838 231.267 33.838 L 231.267 33.838 Z  M 258.101 28.861 L 258.101 28.861 Q 262.392 28.861 264.494 32.036 L 264.494 32.036 L 264.494 32.036 Q 266.596 35.211 266.596 40.918 L 266.596 40.918 L 266.596 40.918 Q 266.596 44.436 265.502 47.203 L 265.502 47.203 L 265.502 47.203 Q 264.408 49.97 262.349 51.536 L 262.349 51.536 L 262.349 51.536 Q 260.289 53.102 257.544 53.102 L 257.544 53.102 L 257.544 53.102 Q 254.111 53.102 252.009 50.743 L 252.009 50.743 L 252.009 61.169 L 245.23 61.898 L 245.23 29.591 L 251.194 29.591 L 251.537 32.122 L 251.537 32.122 Q 252.867 30.449 254.583 29.655 L 254.583 29.655 L 254.583 29.655 Q 256.299 28.861 258.101 28.861 L 258.101 28.861 Z  M 255.484 48.126 L 255.484 48.126 Q 259.56 48.126 259.56 41.003 L 259.56 41.003 L 259.56 41.003 Q 259.56 36.97 258.659 35.404 L 258.659 35.404 L 258.659 35.404 Q 257.758 33.838 255.956 33.838 L 255.956 33.838 L 255.956 33.838 Q 254.798 33.838 253.789 34.525 L 253.789 34.525 L 253.789 34.525 Q 252.781 35.211 252.009 36.498 L 252.009 36.498 L 252.009 46.109 L 252.009 46.109 Q 253.382 48.126 255.484 48.126 L 255.484 48.126 Z  M 275.668 53.102 L 275.668 53.102 Q 272.707 53.102 271.056 51.408 L 271.056 51.408 L 271.056 51.408 Q 269.404 49.713 269.404 46.581 L 269.404 46.581 L 269.404 20.538 L 276.183 19.808 L 276.183 46.324 L 276.183 46.324 Q 276.183 47.739 277.341 47.739 L 277.341 47.739 L 277.341 47.739 Q 277.942 47.739 278.457 47.525 L 278.457 47.525 L 279.787 52.33 L 279.787 52.33 Q 277.942 53.102 275.668 53.102 L 275.668 53.102 Z  M 301 40.531 L 301 40.531 Q 301 41.947 300.871 42.977 L 300.871 42.977 L 286.756 42.977 L 286.756 42.977 Q 287.099 45.852 288.386 47.01 L 288.386 47.01 L 288.386 47.01 Q 289.673 48.168 291.947 48.168 L 291.947 48.168 L 291.947 48.168 Q 293.32 48.168 294.607 47.675 L 294.607 47.675 L 294.607 47.675 Q 295.894 47.182 297.396 46.152 L 297.396 46.152 L 300.185 49.928 L 300.185 49.928 Q 296.195 53.102 291.304 53.102 L 291.304 53.102 L 291.304 53.102 Q 285.769 53.102 282.808 49.842 L 282.808 49.842 L 282.808 49.842 Q 279.848 46.581 279.848 41.089 L 279.848 41.089 L 279.848 41.089 Q 279.848 37.614 281.092 34.846 L 281.092 34.846 L 281.092 34.846 Q 282.336 32.079 284.739 30.47 L 284.739 30.47 L 284.739 30.47 Q 287.142 28.861 290.488 28.861 L 290.488 28.861 L 290.488 28.861 Q 295.422 28.861 298.211 31.95 L 298.211 31.95 L 298.211 31.95 Q 301 35.04 301 40.531 L 301 40.531 Z  M 294.35 38.901 L 294.35 38.601 L 294.35 38.601 Q 294.264 33.366 290.66 33.366 L 290.66 33.366 L 290.66 33.366 Q 288.901 33.366 287.935 34.653 L 287.935 34.653 L 287.935 34.653 Q 286.97 35.941 286.756 38.901 L 286.756 38.901 L 294.35 38.901 Z " fill="rgb(255,255,255)"/><g><path d=" M 40.237 10.169 Q 57.217 9.404 62.843 34.611 C 68.137 58.33 62.682 64.746 43.349 65.726 Q 42.271 65.87 41.062 65.852 C 40.785 65.848 40.51 65.843 40.237 65.837 C 39.964 65.843 39.689 65.848 39.412 65.852 Q 38.203 65.87 37.125 65.726 C 17.792 64.746 12.337 58.33 17.631 34.611 Q 23.257 9.404 40.237 10.169 Z " fill="rgb(47,47,47)"/><path d=" M 55.455 26.282 Q 57.655 30.5 59.568 37.508 Q 66.737 63.774 40.139 62.844 Q 13.542 63.774 20.711 37.508 Q 22.863 29.623 25.379 25.269 C 26.841 21.691 29.95 19.216 33.542 19.216 C 36.15 19.216 38.551 20.498 40.237 22.689 C 41.923 20.498 44.324 19.216 46.932 19.216 C 50.854 19.216 54.201 22.167 55.455 26.282 Z " fill="rgb(255,255,255)"/><path d=" M 42.902 36.186 L 42.552 36.852 L 42.202 37.519 C 41.118 39.584 39.357 39.584 38.272 37.519 L 37.922 36.852 L 37.572 36.186 C 36.488 34.12 37.501 32.443 39.834 32.443 L 40.237 32.443 L 40.64 32.443 C 42.973 32.443 43.986 34.12 42.902 36.186 Z " fill="rgb(255,81,0)"/><g><path d=" M 31.321 24.526 C 29.544 24.526 28.105 26.299 28.105 28.485 C 28.105 31.723 29.544 32.443 31.321 32.443 C 33.658 32.443 34.371 30.665 34.537 28.485 C 34.73 25.956 33.097 24.526 31.321 24.526 Z  M 31.636 30.199 C 31.466 30.199 31.329 30.062 31.329 29.892 C 31.329 29.722 31.466 29.584 31.636 29.584 C 31.806 29.584 31.943 29.722 31.943 29.892 C 31.943 30.062 31.805 30.199 31.636 30.199 Z  M 31.39 28.897 C 30.744 28.897 30.221 28.282 30.221 27.523 C 30.221 26.763 30.744 26.148 31.39 26.148 C 32.035 26.148 32.558 26.763 32.558 27.523 C 32.558 28.282 32.035 28.897 31.39 28.897 Z " fill="rgb(36,36,36)"/><path d=" M 49.138 24.526 C 47.361 24.526 45.921 26.299 45.921 28.485 C 45.921 31.723 47.361 32.443 49.138 32.443 C 51.474 32.443 52.188 30.665 52.354 28.485 C 52.546 25.956 50.914 24.526 49.138 24.526 Z  M 49.453 30.199 C 49.283 30.199 49.145 30.062 49.145 29.892 C 49.145 29.722 49.283 29.584 49.453 29.584 C 49.623 29.584 49.76 29.722 49.76 29.892 C 49.76 30.062 49.623 30.199 49.453 30.199 Z  M 49.207 28.897 C 48.561 28.897 48.038 28.282 48.038 27.523 C 48.038 26.763 48.561 26.148 49.207 26.148 C 49.852 26.148 50.375 26.763 50.375 27.523 C 50.375 28.282 49.852 28.897 49.207 28.897 Z " fill="rgb(36,36,36)"/></g></g></g></svg>